<mxfile host="app.diagrams.net" agent="Mozilla/5.0 (Windows NT 10.0; Win64; x64) AppleWebKit/537.36 (KHTML, like Gecko) Chrome/127.0.0.0 Safari/537.36 Edg/127.0.0.0" version="24.7.6">
  <diagram name="Page-1" id="XcF9Qb0v1f_GAt9PM-Jb">
    <mxGraphModel dx="1004" dy="1101" grid="1" gridSize="10" guides="1" tooltips="1" connect="1" arrows="1" fold="1" page="1" pageScale="1" pageWidth="1100" pageHeight="850" math="0" shadow="0">
      <root>
        <mxCell id="0" />
        <mxCell id="1" parent="0" />
        <mxCell id="VHt84UT9PNqsOY00lvBK-1" value="&lt;p&gt;&lt;br&gt;&lt;/p&gt;" style="rounded=0;whiteSpace=wrap;html=1;" vertex="1" parent="1">
          <mxGeometry x="640" y="200" width="440" height="350" as="geometry" />
        </mxCell>
        <mxCell id="VHt84UT9PNqsOY00lvBK-2" value="" style="image;aspect=fixed;html=1;points=[];align=center;fontSize=12;image=img/lib/azure2/app_services/App_Service_Plans.svg;" vertex="1" parent="1">
          <mxGeometry x="670" y="330" width="64" height="64" as="geometry" />
        </mxCell>
        <mxCell id="VHt84UT9PNqsOY00lvBK-4" value="" style="image;aspect=fixed;html=1;points=[];align=center;fontSize=12;image=img/lib/azure2/app_services/App_Services.svg;" vertex="1" parent="1">
          <mxGeometry x="770" y="250" width="64" height="64" as="geometry" />
        </mxCell>
        <mxCell id="VHt84UT9PNqsOY00lvBK-5" value="" style="image;aspect=fixed;html=1;points=[];align=center;fontSize=12;image=img/lib/azure2/app_services/App_Services.svg;" vertex="1" parent="1">
          <mxGeometry x="734" y="430" width="64" height="64" as="geometry" />
        </mxCell>
        <mxCell id="VHt84UT9PNqsOY00lvBK-6" value="" style="image;aspect=fixed;html=1;points=[];align=center;fontSize=12;image=img/lib/azure2/analytics/Log_Analytics_Workspaces.svg;" vertex="1" parent="1">
          <mxGeometry x="870" y="425" width="64" height="64" as="geometry" />
        </mxCell>
        <mxCell id="VHt84UT9PNqsOY00lvBK-7" value="" style="image;aspect=fixed;html=1;points=[];align=center;fontSize=12;image=img/lib/azure2/storage/Storage_Accounts.svg;" vertex="1" parent="1">
          <mxGeometry x="870" y="290" width="65" height="52" as="geometry" />
        </mxCell>
        <mxCell id="VHt84UT9PNqsOY00lvBK-8" value="" style="image;aspect=fixed;html=1;points=[];align=center;fontSize=12;image=img/lib/azure2/networking/Virtual_Networks.svg;" vertex="1" parent="1">
          <mxGeometry x="470" y="240" width="67" height="40" as="geometry" />
        </mxCell>
        <mxCell id="VHt84UT9PNqsOY00lvBK-9" value="" style="image;aspect=fixed;html=1;points=[];align=center;fontSize=12;image=img/lib/azure2/networking/Private_Endpoint.svg;" vertex="1" parent="1">
          <mxGeometry x="514" y="350" width="72" height="66" as="geometry" />
        </mxCell>
        <mxCell id="VHt84UT9PNqsOY00lvBK-10" value="" style="image;aspect=fixed;html=1;points=[];align=center;fontSize=12;image=img/lib/azure2/security/Key_Vaults.svg;" vertex="1" parent="1">
          <mxGeometry x="480" y="570" width="68" height="68" as="geometry" />
        </mxCell>
        <mxCell id="VHt84UT9PNqsOY00lvBK-12" value="" style="image;aspect=fixed;html=1;points=[];align=center;fontSize=12;image=img/lib/azure2/networking/Private_Endpoint.svg;" vertex="1" parent="1">
          <mxGeometry x="537" y="460" width="72" height="66" as="geometry" />
        </mxCell>
      </root>
    </mxGraphModel>
  </diagram>
</mxfile>
